<?xml version="1.0" encoding="utf-8"?>
<!-- Generator: Adobe Illustrator 28.3.0, SVG Export Plug-In . SVG Version: 6.00 Build 0)  -->
<svg version="1.1" id="Layer_1" xmlns="http://www.w3.org/2000/svg" xmlns:xlink="http://www.w3.org/1999/xlink" x="0px" y="0px"
	 viewBox="0 0 457.7 356" style="enable-background:new 0 0 457.7 356;" xml:space="preserve">
<style type="text/css">
	.st0{fill-opacity:0;}
</style>
<path d="M110.2,167.1c-16.4,0.1-32.6,4.3-46.9,12.4c20.1-52.1,53.5-98.1,96.9-133.3c10.4-8.6,11.9-24,3.3-34.4
	c-8.6-10.4-24-11.9-34.4-3.3C40.2,80.7,0.6,180.7,0.6,242.7c0.3,44.8,27.1,85.2,68.2,102.9c13,6.3,27.3,9.7,41.8,9.8
	c52,2.5,96.2-37.6,98.7-89.5c2.5-52-37.6-96.2-89.5-98.7c-3-0.1-6.1-0.1-9.1,0H110.2z"/>
<path d="M357.7,167.1c-16.4,0-32.6,4.3-46.9,12.4c20.1-52.1,53.4-98,96.7-133.3c11-7.9,13.4-23.2,5.5-34.1
	c-7.9-11-23.2-13.4-34.1-5.5c-0.8,0.6-1.6,1.2-2.3,1.9c-88.9,72.2-128.4,172.2-128.4,234.2c0.2,44.3,26.3,84.3,66.7,102.4
	c13.4,6.5,28,9.8,42.9,9.8c52,2.5,96.2-37.6,98.7-89.5s-37.6-96.2-89.5-98.7c-3-0.1-6.1-0.1-9.1,0V167.1z"/>
<rect x="-153.4" y="-200.7" class="st0" width="800" height="800"/>
</svg>
